<?xml version="1.0"?>
<svg version="1.1" xmlns="http://www.w3.org/2000/svg" width="400px" height="200px" style="border: dashed 2px #aaa"><path fill="#" d="M97.848,116.8l0-1.764l-4.984,0q-3.472,0-5.824-2.352t-2.352-5.824q0-3.192,2.352-5.488t5.824-2.296l4.984,0l0-1.82l-4.984,0q-4.228,0-7.084,2.8q-2.856,2.772-2.856,6.804q0,4.284,2.856,7.084q2.8,2.856,7.084,2.856l4.984,0z M101.81952,116.828l1.764,0l0-19.684l-1.764,0l0,19.684z M122.28304,97.2l-15.176,0l0,1.708l6.888,0l0,17.948l1.736,0l0-17.948l6.552,0l0-1.708z M140.61856,97.2l-1.736,0l0,2.072q0,2.576-1.792,4.312q-1.764,1.68-4.2,1.68q-2.604,0-4.284-1.68t-1.68-4.312l0-2.072l-1.736,0l0,2.072q0,3.136,1.904,5.32q1.876,2.212,4.76,2.408l0,9.828l1.764,0l0-9.828q2.94-0.224,4.956-2.408q2.044-2.184,2.044-5.32l0-2.072z M154.0776,116.828l1.764,0l0-19.684l-1.764,0l0,19.684z M160.45712,116.744l1.736,0l0-11.844q0-2.352,1.792-4.144t4.144-1.792q2.296,0,4.144,1.792q1.764,1.764,1.764,4.144l0,11.844l1.792,0l0-11.844q0-2.408,1.792-4.144q1.792-1.792,4.116-1.792q2.352,0,4.144,1.792t1.792,4.144l0,11.844l1.736,0l0-11.844q0-3.192-2.24-5.432t-5.432-2.24q-2.1,0-3.948,1.148q-1.876,1.176-2.688,2.996q-1.092-1.876-2.94-2.996q-1.932-1.148-4.032-1.148q-3.164,0-5.404,2.24q-2.268,2.268-2.268,5.432l0,11.844z M201.08064,97.088q-3.136,0-5.264,2.268q-2.1,2.24-2.1,5.46l0,11.984l1.764,0l0-8.792l11.256,0l0,8.792l1.764,0l0-11.984q0-3.22-2.1-5.46q-2.184-2.268-5.32-2.268z M206.73664,106.272l-11.256,0l0-1.456q0-2.408,1.624-4.172q1.652-1.792,3.976-1.792t4.032,1.792q1.624,1.764,1.624,4.172l0,1.456z M222.10416,98.88l5.404,0l0-1.764l-5.404,0q-4.032,0-6.832,2.856q-2.828,2.884-2.828,7.196q0,4.004,2.828,6.832t6.832,2.828l3.584,0l1.82,0l0-1.792l0-8.96l-1.82,0l-4.284,0l0,1.792l4.284,0l0,7.168l-3.584,0q-3.192,0-5.516-2.324t-2.324-5.544q0-3.5,2.324-5.908q2.296-2.38,5.516-2.38z M233.29968,111.424q0-1.344,0.952-2.436q0.952-1.148,2.296-1.148l0.364,0l5.236,0l0-1.736l-5.236,0l-0.364,0q-1.428-0.28-2.338-1.232t-0.91-2.268q0-1.652,0.966-2.618t2.646-0.966l9.52,0l0-1.764l-9.52,0q-2.156,0-3.752,1.596q-1.596,1.54-1.596,3.752q0,1.4,0.532,2.548t1.568,1.652q-1.036,0.756-1.568,1.988t-0.532,2.632q0,2.184,1.596,3.724q1.624,1.624,3.752,1.624l9.52,0l0-1.848l-9.52,0q-1.68,0-2.646-0.952t-0.966-2.548z M259.66672,116.856l13.692,0l0-1.428l-11.956,0l0-18.228l-1.736,0l0,19.656z M283.93824,97.088q-3.136,0-5.264,2.268q-2.1,2.24-2.1,5.46l0,11.984l1.764,0l0-8.792l11.256,0l0,8.792l1.764,0l0-11.984q0-3.22-2.1-5.46q-2.184-2.268-5.32-2.268z M289.59424,106.272l-11.256,0l0-1.456q0-2.408,1.624-4.172q1.652-1.792,3.976-1.792t4.032,1.792q1.624,1.764,1.624,4.172l0,1.456z M308.60176,106.804q1.092-0.532,1.792-1.764q0.7-1.176,0.7-2.52q0-2.408-1.624-3.892q-1.624-1.456-4.088-1.456l-7.868,0l-0.336,0l-1.428,0l0,19.628l1.428,0l0.336,0l7.868,0q2.464,0,4.088-1.456q1.624-1.484,1.624-3.892q0-1.316-0.686-2.562t-1.806-2.086z M297.51376,98.6l7.868,0q1.68,0,2.772,1.148q1.176,1.232,1.176,2.772q0,1.26-0.924,2.324q-0.868,0.952-2.296,1.26l-0.728,0l-7.868,0l0-7.504z M305.38176,115.372l-7.868,0l0-7.504l7.868,0l0.728,0q1.428,0.308,2.296,1.26q0.924,1.064,0.924,2.324q0,1.512-1.176,2.744q-1.12,1.176-2.772,1.176z"/><path fill="#" d=""/></svg>
